RubikHebrew-Bold.ufo
<glyph name="exclam" format="1">
  <advance width="295"/>
  <unicode hex="0021"/>
  <outline>
    <contour>
      <point x="208" y="226" type="line" smooth="yes"/>
      <point x="222" y="226"/>
      <point x="233" y="237"/>
      <point x="233" y="252" type="curve" smooth="yes"/>
      <point x="233" y="675" type="line" smooth="yes"/>
      <point x="233" y="689"/>
      <point x="222" y="700"/>
      <point x="208" y="700" type="curve" smooth="yes"/>
      <point x="86" y="700" type="line" smooth="yes"/>
      <point x="72" y="700"/>
      <point x="61" y="689"/>
      <point x="61" y="675" type="curve" smooth="yes"/>
      <point x="61" y="252" type="line" smooth="yes"/>
      <point x="61" y="237"/>
      <point x="72" y="226"/>
      <point x="86" y="226" type="curve" smooth="yes"/>
    </contour>
    <contour>
      <point x="212" y="0" type="line" smooth="yes"/>
      <point x="226" y="0"/>
      <point x="238" y="11"/>
      <point x="238" y="25" type="curve" smooth="yes"/>
      <point x="238" y="154" type="line" smooth="yes"/>
      <point x="238" y="168"/>
      <point x="226" y="180"/>
      <point x="212" y="180" type="curve" smooth="yes"/>
      <point x="83" y="180" type="line" smooth="yes"/>
      <point x="69" y="180"/>
      <point x="58" y="168"/>
      <point x="58" y="154" type="curve" smooth="yes"/>
      <point x="58" y="25" type="line" smooth="yes"/>
      <point x="58" y="11"/>
      <point x="69" y="0"/>
      <point x="83" y="0" type="curve" smooth="yes"/>
    </contour>
  </outline>
</glyph>
<glyph name="percent" format="1">
  <advance width="811"/>
  <unicode hex="0025"/>
  <outline>
    <contour>
      <point x="187" y="0" type="line" smooth="yes"/>
      <point x="205" y="0"/>
      <point x="213" y="7"/>
      <point x="222" y="19" type="curve" smooth="yes"/>
      <point x="715" y="669" type="line" smooth="yes"/>
      <point x="718" y="673"/>
      <point x="719" y="678"/>
      <point x="719" y="680" type="curve" smooth="yes"/>
      <point x="719" y="692"/>
      <point x="710" y="700"/>
      <point x="697" y="700" type="curve" smooth="yes"/>
      <point x="622" y="700" type="line" smooth="yes"/>
      <point x="603" y="700"/>
      <point x="596" y="693"/>
      <point x="587" y="681" type="curve" smooth="yes"/>
      <point x="93" y="31" type="line" smooth="yes"/>
      <point x="90" y="27"/>
      <point x="89" y="22"/>
      <point x="89" y="20" type="curve" smooth="yes"/>
      <point x="89" y="8"/>
      <point x="98" y="0"/>
      <point x="112" y="0" type="curve" smooth="yes"/>
    </contour>
    <contour>
      <point x="400" y="228"/>
      <point x="459" y="280"/>
      <point x="464" y="360" type="curve" smooth="yes"/>
      <point x="467" y="394"/>
      <point x="466" y="418"/>
      <point x="464" y="455" type="curve" smooth="yes"/>
      <point x="459" y="535"/>
      <point x="405" y="588"/>
      <point x="309" y="588" type="curve" smooth="yes"/>
      <point x="213" y="588"/>
      <point x="159" y="535"/>
      <point x="155" y="455" type="curve" smooth="yes"/>
      <point x="153" y="418"/>
      <point x="152" y="394"/>
      <point x="155" y="360" type="curve" smooth="yes"/>
      <point x="160" y="280"/>
      <point x="218" y="228"/>
      <point x="309" y="228" type="curve" smooth="yes"/>
    </contour>
    <contour>
      <point x="278" y="319"/>
      <point x="267" y="342"/>
      <point x="265" y="366" type="curve" smooth="yes"/>
      <point x="263" y="396"/>
      <point x="263" y="421"/>
      <point x="265" y="449" type="curve" smooth="yes"/>
      <point x="266" y="474"/>
      <point x="278" y="497"/>
      <point x="309" y="497" type="curve" smooth="yes"/>
      <point x="340" y="497"/>
      <point x="352" y="474"/>
      <point x="353" y="449" type="curve" smooth="yes"/>
      <point x="355" y="421"/>
      <point x="355" y="396"/>
      <point x="353" y="366" type="curve" smooth="yes"/>
      <point x="351" y="342"/>
      <point x="340" y="319"/>
      <point x="309" y="319" type="curve" smooth="yes"/>
    </contour>
    <contour>
      <point x="593" y="113"/>
      <point x="652" y="164"/>
      <point x="657" y="244" type="curve" smooth="yes"/>
      <point x="660" y="278"/>
      <point x="659" y="301"/>
      <point x="657" y="338" type="curve" smooth="yes"/>
      <point x="652" y="419"/>
      <point x="598" y="472"/>
      <point x="502" y="472" type="curve" smooth="yes"/>
      <point x="406" y="472"/>
      <point x="352" y="419"/>
      <point x="348" y="338" type="curve" smooth="yes"/>
      <point x="346" y="301"/>
      <point x="345" y="278"/>
      <point x="348" y="244" type="curve" smooth="yes"/>
      <point x="353" y="164"/>
      <point x="411" y="113"/>
      <point x="502" y="113" type="curve" smooth="yes"/>
    </contour>
    <contour>
      <point x="471" y="202"/>
      <point x="460" y="226"/>
      <point x="458" y="250" type="curve" smooth="yes"/>
      <point x="456" y="280"/>
      <point x="456" y="304"/>
      <point x="458" y="333" type="curve" smooth="yes"/>
      <point x="459" y="357"/>
      <point x="471" y="380"/>
      <point x="502" y="380" type="curve" smooth="yes"/>
      <point x="533" y="380"/>
      <point x="545" y="357"/>
      <point x="546" y="333" type="curve" smooth="yes"/>
      <point x="548" y="304"/>
      <point x="548" y="280"/>
      <point x="546" y="250" type="curve" smooth="yes"/>
      <point x="544" y="226"/>
      <point x="533" y="202"/>
      <point x="502" y="202" type="curve" smooth="yes"/>
    </contour>
  </outline>
</glyph>
<glyph name="plus" format="1">
  <advance width="605"/>
  <unicode hex="002B"/>
  <outline>
    <contour>
      <point x="347" y="33" type="line" smooth="yes"/>
      <point x="361" y="33"/>
      <point x="372" y="44"/>
      <point x="372" y="58" type="curve" smooth="yes"/>
      <point x="372" y="239" type="line"/>
      <point x="547" y="239" type="line" smooth="yes"/>
      <point x="561" y="239"/>
      <point x="572" y="250"/>
      <point x="572" y="264" type="curve" smooth="yes"/>
      <point x="572" y="341" type="line" smooth="yes"/>
      <point x="572" y="356"/>
      <point x="561" y="367"/>
      <point x="547" y="367" type="curve" smooth="yes"/>
      <point x="372" y="367" type="line"/>
      <point x="372" y="542" type="line" smooth="yes"/>
      <point x="372" y="556"/>
      <point x="361" y="567"/>
      <point x="347" y="567" type="curve" smooth="yes"/>
      <point x="260" y="567" type="line" smooth="yes"/>
      <point x="246" y="567"/>
      <point x="235" y="556"/>
      <point x="235" y="542" type="curve" smooth="yes"/>
      <point x="235" y="367" type="line"/>
      <point x="59" y="367" type="line" smooth="yes"/>
      <point x="45" y="367"/>
      <point x="34" y="356"/>
      <point x="34" y="341" type="curve" smooth="yes"/>
      <point x="34" y="264" type="line" smooth="yes"/>
      <point x="34" y="250"/>
      <point x="45" y="239"/>
      <point x="59" y="239" type="curve" smooth="yes"/>
      <point x="235" y="239" type="line"/>
      <point x="235" y="58" type="line" smooth="yes"/>
      <point x="235" y="44"/>
      <point x="246" y="33"/>
      <point x="260" y="33" type="curve" smooth="yes"/>
    </contour>
  </outline>
</glyph>
<glyph name="C" format="1">
  <advance width="706"/>
  <unicode hex="0043"/>
  <outline>
    <contour>
      <point x="535" y="-10"/>
      <point x="669" y="80"/>
      <point x="672" y="233" type="curve" smooth="yes"/>
      <point x="673" y="245"/>
      <point x="663" y="254"/>
      <point x="651" y="254" type="curve"/>
      <point x="508" y="254" type="line"/>
      <point x="490" y="254"/>
      <point x="482" y="248"/>
      <point x="476" y="228" type="curve" smooth="yes"/>
      <point x="459" y="161"/>
      <point x="416" y="140"/>
      <point x="358" y="140" type="curve" smooth="yes"/>
      <point x="288" y="140"/>
      <point x="244" y="175"/>
      <point x="241" y="266" type="curve" smooth="yes"/>
      <point x="239" y="323"/>
      <point x="239" y="379"/>
      <point x="241" y="434" type="curve"/>
      <point x="244" y="525"/>
      <point x="288" y="560"/>
      <point x="358" y="560" type="curve" smooth="yes"/>
      <point x="416" y="560"/>
      <point x="457" y="541"/>
      <point x="476" y="472" type="curve" smooth="yes"/>
      <point x="482" y="452"/>
      <point x="490" y="446"/>
      <point x="508" y="446" type="curve"/>
      <point x="651" y="446" type="line"/>
      <point x="663" y="446"/>
      <point x="673" y="455"/>
      <point x="672" y="467" type="curve" smooth="yes"/>
      <point x="669" y="620"/>
      <point x="535" y="710"/>
      <point x="359" y="710" type="curve" smooth="yes"/>
      <point x="173" y="710"/>
      <point x="54" y="615"/>
      <point x="47" y="439" type="curve"/>
      <point x="45" y="382"/>
      <point x="45" y="315"/>
      <point x="47" y="261" type="curve"/>
      <point x="54" y="82"/>
      <point x="170" y="-10"/>
      <point x="359" y="-10" type="curve" smooth="yes"/>
    </contour>
  </outline>
</glyph>
<glyph name="H" format="1">
  <advance width="748"/>
  <unicode hex="0048"/>
  <outline>
    <contour>
      <point x="230" y="0" type="line" smooth="yes"/>
      <point x="245" y="0"/>
      <point x="256" y="11"/>
      <point x="256" y="25" type="curve" smooth="yes"/>
      <point x="256" y="270" type="line"/>
      <point x="492" y="270" type="line"/>
      <point x="492" y="25" type="line" smooth="yes"/>
      <point x="492" y="11"/>
      <point x="503" y="0"/>
      <point x="518" y="0" type="curve" smooth="yes"/>
      <point x="654" y="0" type="line" smooth="yes"/>
      <point x="669" y="0"/>
      <point x="680" y="11"/>
      <point x="680" y="25" type="curve" smooth="yes"/>
      <point x="680" y="674" type="line" smooth="yes"/>
      <point x="680" y="689"/>
      <point x="669" y="700"/>
      <point x="654" y="700" type="curve" smooth="yes"/>
      <point x="518" y="700" type="line" smooth="yes"/>
      <point x="503" y="700"/>
      <point x="492" y="689"/>
      <point x="492" y="674" type="curve" smooth="yes"/>
      <point x="492" y="437" type="line"/>
      <point x="256" y="437" type="line"/>
      <point x="256" y="674" type="line" smooth="yes"/>
      <point x="256" y="689"/>
      <point x="245" y="700"/>
      <point x="230" y="700" type="curve" smooth="yes"/>
      <point x="93" y="700" type="line" smooth="yes"/>
      <point x="79" y="700"/>
      <point x="68" y="689"/>
      <point x="68" y="674" type="curve" smooth="yes"/>
      <point x="68" y="25" type="line" smooth="yes"/>
      <point x="68" y="10"/>
      <point x="79" y="0"/>
      <point x="93" y="0" type="curve" smooth="yes"/>
    </contour>
  </outline>
</glyph>
<glyph name="N" format="1">
  <advance width="721"/>
  <unicode hex="004E"/>
  <outline>
    <contour>
      <point x="220" y="0" type="line" smooth="yes"/>
      <point x="235" y="0"/>
      <point x="246" y="11"/>
      <point x="246" y="25" type="curve" smooth="yes"/>
      <point x="246" y="377" type="line"/>
      <point x="481" y="19" type="line" smooth="yes"/>
      <point x="484" y="14"/>
      <point x="493" y="0"/>
      <point x="515" y="0" type="curve" smooth="yes"/>
      <point x="628" y="0" type="line" smooth="yes"/>
      <point x="642" y="0"/>
      <point x="653" y="11"/>
      <point x="653" y="26" type="curve" smooth="yes"/>
      <point x="653" y="674" type="line" smooth="yes"/>
      <point x="653" y="689"/>
      <point x="642" y="700"/>
      <point x="628" y="700" type="curve" smooth="yes"/>
      <point x="501" y="700" type="line" smooth="yes"/>
      <point x="487" y="700"/>
      <point x="476" y="689"/>
      <point x="476" y="674" type="curve" smooth="yes"/>
      <point x="476" y="308" type="line"/>
      <point x="240" y="681" type="line" smooth="yes"/>
      <point x="237" y="686"/>
      <point x="228" y="700"/>
      <point x="206" y="700" type="curve" smooth="yes"/>
      <point x="93" y="700" type="line" smooth="yes"/>
      <point x="79" y="700"/>
      <point x="68" y="689"/>
      <point x="68" y="674" type="curve" smooth="yes"/>
      <point x="68" y="25" type="line" smooth="yes"/>
      <point x="68" y="11"/>
      <point x="79" y="0"/>
      <point x="93" y="0" type="curve" smooth="yes"/>
    </contour>
  </outline>
</glyph>
<glyph name="T" format="1">
  <advance width="635"/>
  <unicode hex="0054"/>
  <outline>
    <contour>
      <point x="387" y="0" type="line" smooth="yes"/>
      <point x="401" y="0"/>
      <point x="412" y="11"/>
      <point x="412" y="25" type="curve" smooth="yes"/>
      <point x="412" y="537" type="line"/>
      <point x="589" y="537" type="line" smooth="yes"/>
      <point x="603" y="537"/>
      <point x="614" y="548"/>
      <point x="614" y="562" type="curve" smooth="yes"/>
      <point x="614" y="674" type="line" smooth="yes"/>
      <point x="614" y="689"/>
      <point x="603" y="700"/>
      <point x="589" y="700" type="curve" smooth="yes"/>
      <point x="45" y="700" type="line" smooth="yes"/>
      <point x="31" y="700"/>
      <point x="20" y="689"/>
      <point x="20" y="674" type="curve" smooth="yes"/>
      <point x="20" y="562" type="line" smooth="yes"/>
      <point x="20" y="548"/>
      <point x="31" y="537"/>
      <point x="45" y="537" type="curve" smooth="yes"/>
      <point x="222" y="537" type="line"/>
      <point x="222" y="25" type="line" smooth="yes"/>
      <point x="222" y="11"/>
      <point x="233" y="0"/>
      <point x="247" y="0" type="curve" smooth="yes"/>
    </contour>
  </outline>
</glyph>
<glyph name="grave" format="1">
  <advance width="404"/>
  <unicode hex="0060"/>
  <outline>
    <contour>
      <point x="331" y="595" type="line" smooth="yes"/>
      <point x="341" y="595"/>
      <point x="347" y="601"/>
      <point x="347" y="611" type="curve" smooth="yes"/>
      <point x="347" y="616"/>
      <point x="345" y="621"/>
      <point x="342" y="624" type="curve" smooth="yes"/>
      <point x="253" y="733" type="line"/>
      <point x="239" y="749"/>
      <point x="232" y="752"/>
      <point x="216" y="752" type="curve" smooth="yes"/>
      <point x="78" y="752" type="line" smooth="yes"/>
      <point x="66" y="752"/>
      <point x="59" y="744"/>
      <point x="59" y="732" type="curve" smooth="yes"/>
      <point x="59" y="727"/>
      <point x="61" y="723"/>
      <point x="64" y="720" type="curve" smooth="yes"/>
      <point x="198" y="610" type="line" smooth="yes"/>
      <point x="209" y="601"/>
      <point x="218" y="595"/>
      <point x="237" y="595" type="curve" smooth="yes"/>
    </contour>
  </outline>
</glyph>
<glyph name="c" format="1">
  <advance width="593"/>
  <unicode hex="0063"/>
  <outline>
    <contour>
      <point x="494" y="-10"/>
      <point x="561" y="120"/>
      <point x="564" y="172" type="curve" smooth="yes"/>
      <point x="565" y="187"/>
      <point x="552" y="198"/>
      <point x="538" y="198" type="curve" smooth="yes"/>
      <point x="404" y="198" type="line" smooth="yes"/>
      <point x="389" y="198"/>
      <point x="382" y="191"/>
      <point x="376" y="177" type="curve" smooth="yes"/>
      <point x="362" y="139"/>
      <point x="342" y="123"/>
      <point x="303" y="123" type="curve" smooth="yes"/>
      <point x="252" y="123"/>
      <point x="225" y="154"/>
      <point x="223" y="224" type="curve" smooth="yes"/>
      <point x="222" y="244"/>
      <point x="222" y="269"/>
      <point x="223" y="295" type="curve" smooth="yes"/>
      <point x="225" y="363"/>
      <point x="252" y="397"/>
      <point x="303" y="397" type="curve" smooth="yes"/>
      <point x="339" y="397"/>
      <point x="361" y="381"/>
      <point x="376" y="343" type="curve" smooth="yes"/>
      <point x="382" y="329"/>
      <point x="389" y="322"/>
      <point x="404" y="322" type="curve" smooth="yes"/>
      <point x="538" y="322" type="line" smooth="yes"/>
      <point x="552" y="322"/>
      <point x="565" y="333"/>
      <point x="564" y="348" type="curve" smooth="yes"/>
      <point x="561" y="407"/>
      <point x="487" y="530"/>
      <point x="299" y="530" type="curve" smooth="yes"/>
      <point x="150" y="530"/>
      <point x="45" y="446"/>
      <point x="39" y="300" type="curve" smooth="yes"/>
      <point x="38" y="278"/>
      <point x="38" y="240"/>
      <point x="39" y="219" type="curve" smooth="yes"/>
      <point x="46" y="73"/>
      <point x="150" y="-10"/>
      <point x="299" y="-10" type="curve" smooth="yes"/>
    </contour>
  </outline>
</glyph>
<glyph name="h" format="1">
  <advance width="654"/>
  <unicode hex="0068"/>
  <outline>
    <contour>
      <point x="218" y="0" type="line" smooth="yes"/>
      <point x="232" y="0"/>
      <point x="243" y="11"/>
      <point x="243" y="25" type="curve" smooth="yes"/>
      <point x="243" y="298" type="line" smooth="yes"/>
      <point x="243" y="357"/>
      <point x="277" y="391"/>
      <point x="330" y="391" type="curve" smooth="yes"/>
      <point x="385" y="391"/>
      <point x="414" y="357"/>
      <point x="414" y="298" type="curve" smooth="yes"/>
      <point x="414" y="25" type="line" smooth="yes"/>
      <point x="414" y="11"/>
      <point x="425" y="0"/>
      <point x="440" y="0" type="curve" smooth="yes"/>
      <point x="576" y="0" type="line" smooth="yes"/>
      <point x="590" y="0"/>
      <point x="601" y="11"/>
      <point x="601" y="25" type="curve" smooth="yes"/>
      <point x="601" y="304" type="line" smooth="yes"/>
      <point x="601" y="452"/>
      <point x="513" y="530"/>
      <point x="401" y="530" type="curve" smooth="yes"/>
      <point x="331" y="530"/>
      <point x="279" y="503"/>
      <point x="243" y="462" type="curve"/>
      <point x="243" y="685" type="line" smooth="yes"/>
      <point x="243" y="699"/>
      <point x="232" y="710"/>
      <point x="218" y="710" type="curve" smooth="yes"/>
      <point x="82" y="710" type="line" smooth="yes"/>
      <point x="68" y="710"/>
      <point x="57" y="699"/>
      <point x="57" y="685" type="curve" smooth="yes"/>
      <point x="57" y="25" type="line" smooth="yes"/>
      <point x="57" y="11"/>
      <point x="68" y="0"/>
      <point x="82" y="0" type="curve" smooth="yes"/>
    </contour>
  </outline>
</glyph>
<glyph name="j" format="1">
  <advance width="308"/>
  <unicode hex="006A"/>
  <outline>
    <contour>
      <point x="30" y="-190" type="line" smooth="yes"/>
      <point x="167" y="-190"/>
      <point x="250" y="-119"/>
      <point x="250" y="12" type="curve" smooth="yes"/>
      <point x="250" y="495" type="line" smooth="yes"/>
      <point x="250" y="509"/>
      <point x="239" y="520"/>
      <point x="225" y="520" type="curve" smooth="yes"/>
      <point x="94" y="520" type="line" smooth="yes"/>
      <point x="79" y="520"/>
      <point x="68" y="509"/>
      <point x="68" y="495" type="curve" smooth="yes"/>
      <point x="68" y="16" type="line" smooth="yes"/>
      <point x="68" y="-25"/>
      <point x="57" y="-54"/>
      <point x="10" y="-54" type="curve" smooth="yes"/>
      <point x="-30" y="-54" type="line" smooth="yes"/>
      <point x="-45" y="-54"/>
      <point x="-56" y="-65"/>
      <point x="-56" y="-79" type="curve" smooth="yes"/>
      <point x="-56" y="-165" type="line" smooth="yes"/>
      <point x="-56" y="-179"/>
      <point x="-45" y="-190"/>
      <point x="-30" y="-190" type="curve" smooth="yes"/>
    </contour>
    <contour>
      <point x="225" y="592" type="line" smooth="yes"/>
      <point x="239" y="592"/>
      <point x="250" y="603"/>
      <point x="250" y="618" type="curve" smooth="yes"/>
      <point x="250" y="711" type="line" smooth="yes"/>
      <point x="250" y="725"/>
      <point x="239" y="737"/>
      <point x="225" y="737" type="curve" smooth="yes"/>
      <point x="93" y="737" type="line" smooth="yes"/>
      <point x="79" y="737"/>
      <point x="68" y="725"/>
      <point x="68" y="711" type="curve" smooth="yes"/>
      <point x="68" y="618" type="line" smooth="yes"/>
      <point x="68" y="603"/>
      <point x="79" y="592"/>
      <point x="93" y="592" type="curve" smooth="yes"/>
    </contour>
  </outline>
</glyph>
<glyph name="p" format="1">
  <advance width="634"/>
  <unicode hex="0070"/>
  <outline>
    <contour>
      <point x="211" y="-190" type="line" smooth="yes"/>
      <point x="226" y="-190"/>
      <point x="237" y="-179"/>
      <point x="237" y="-165" type="curve" smooth="yes"/>
      <point x="237" y="56" type="line"/>
      <point x="268" y="13"/>
      <point x="316" y="-10"/>
      <point x="381" y="-10" type="curve" smooth="yes"/>
      <point x="511" y="-10"/>
      <point x="589" y="79"/>
      <point x="594" y="222" type="curve" smooth="yes"/>
      <point x="595" y="249"/>
      <point x="595" y="270"/>
      <point x="594" y="297" type="curve" smooth="yes"/>
      <point x="588" y="447"/>
      <point x="511" y="530"/>
      <point x="381" y="530" type="curve" smooth="yes"/>
      <point x="308" y="530"/>
      <point x="258" y="500"/>
      <point x="227" y="459" type="curve"/>
      <point x="227" y="495" type="line" smooth="yes"/>
      <point x="227" y="509"/>
      <point x="216" y="520"/>
      <point x="201" y="520" type="curve" smooth="yes"/>
      <point x="82" y="520" type="line" smooth="yes"/>
      <point x="68" y="520"/>
      <point x="57" y="509"/>
      <point x="57" y="495" type="curve" smooth="yes"/>
      <point x="57" y="-165" type="line" smooth="yes"/>
      <point x="57" y="-179"/>
      <point x="68" y="-190"/>
      <point x="82" y="-190" type="curve" smooth="yes"/>
    </contour>
    <contour>
      <point x="264" y="129"/>
      <point x="239" y="171"/>
      <point x="237" y="219" type="curve" smooth="yes"/>
      <point x="235" y="245"/>
      <point x="235" y="267"/>
      <point x="237" y="294" type="curve" smooth="yes"/>
      <point x="239" y="345"/>
      <point x="261" y="391"/>
      <point x="324" y="391" type="curve" smooth="yes"/>
      <point x="388" y="391"/>
      <point x="406" y="347"/>
      <point x="410" y="291" type="curve" smooth="yes"/>
      <point x="412" y="271"/>
      <point x="412" y="249"/>
      <point x="410" y="229" type="curve" smooth="yes"/>
      <point x="406" y="173"/>
      <point x="388" y="129"/>
      <point x="324" y="129" type="curve" smooth="yes"/>
    </contour>
  </outline>
</glyph>
<glyph name="v" format="1">
  <advance width="599"/>
  <unicode hex="0076"/>
  <outline>
    <contour>
      <point x="355" y="0" type="line" smooth="yes"/>
      <point x="376" y="0"/>
      <point x="384" y="12"/>
      <point x="390" y="25" type="curve"/>
      <point x="579" y="489" type="line" smooth="yes"/>
      <point x="580" y="492"/>
      <point x="581" y="495"/>
      <point x="581" y="497" type="curve" smooth="yes"/>
      <point x="581" y="510"/>
      <point x="570" y="520"/>
      <point x="558" y="520" type="curve" smooth="yes"/>
      <point x="438" y="520" type="line" smooth="yes"/>
      <point x="421" y="520"/>
      <point x="412" y="508"/>
      <point x="409" y="499" type="curve" smooth="yes"/>
      <point x="299" y="200" type="line"/>
      <point x="190" y="499" type="line" smooth="yes"/>
      <point x="186" y="508"/>
      <point x="178" y="520"/>
      <point x="160" y="520" type="curve" smooth="yes"/>
      <point x="41" y="520" type="line" smooth="yes"/>
      <point x="28" y="520"/>
      <point x="18" y="510"/>
      <point x="18" y="497" type="curve" smooth="yes"/>
      <point x="18" y="495"/>
      <point x="18" y="492"/>
      <point x="19" y="489" type="curve" smooth="yes"/>
      <point x="209" y="25" type="line"/>
      <point x="215" y="12"/>
      <point x="223" y="0"/>
      <point x="243" y="0" type="curve" smooth="yes"/>
    </contour>
  </outline>
</glyph>
<glyph name="x" format="1">
  <advance width="593"/>
  <unicode hex="0078"/>
  <outline>
    <contour>
      <point x="168" y="0" type="line" smooth="yes"/>
      <point x="184" y="0"/>
      <point x="192" y="10"/>
      <point x="196" y="16" type="curve" smooth="yes"/>
      <point x="295" y="148" type="line"/>
      <point x="392" y="16" type="line" smooth="yes"/>
      <point x="397" y="9"/>
      <point x="404" y="0"/>
      <point x="420" y="0" type="curve" smooth="yes"/>
      <point x="555" y="0" type="line" smooth="yes"/>
      <point x="567" y="0"/>
      <point x="578" y="10"/>
      <point x="578" y="23" type="curve" smooth="yes"/>
      <point x="578" y="27"/>
      <point x="577" y="32"/>
      <point x="572" y="38" type="curve" smooth="yes"/>
      <point x="404" y="267" type="line"/>
      <point x="558" y="482" type="line" smooth="yes"/>
      <point x="562" y="487"/>
      <point x="563" y="492"/>
      <point x="563" y="498" type="curve" smooth="yes"/>
      <point x="563" y="510"/>
      <point x="553" y="520"/>
      <point x="541" y="520" type="curve" smooth="yes"/>
      <point x="417" y="520" type="line" smooth="yes"/>
      <point x="400" y="520"/>
      <point x="392" y="508"/>
      <point x="388" y="502" type="curve" smooth="yes"/>
      <point x="299" y="379" type="line"/>
      <point x="210" y="502" type="line" smooth="yes"/>
      <point x="206" y="509"/>
      <point x="198" y="520"/>
      <point x="181" y="520" type="curve" smooth="yes"/>
      <point x="52" y="520" type="line" smooth="yes"/>
      <point x="39" y="520"/>
      <point x="29" y="510"/>
      <point x="29" y="497" type="curve" smooth="yes"/>
      <point x="29" y="492"/>
      <point x="31" y="487"/>
      <point x="34" y="482" type="curve" smooth="yes"/>
      <point x="186" y="267" type="line"/>
      <point x="19" y="38" type="line" smooth="yes"/>
      <point x="15" y="32"/>
      <point x="14" y="26"/>
      <point x="14" y="23" type="curve" smooth="yes"/>
      <point x="14" y="10"/>
      <point x="24" y="0"/>
      <point x="37" y="0" type="curve" smooth="yes"/>
    </contour>
  </outline>
</glyph>
<glyph name="y" format="1">
  <advance width="601"/>
  <unicode hex="0079"/>
  <outline>
    <contour>
      <point x="271" y="-190" type="line" smooth="yes"/>
      <point x="288" y="-190"/>
      <point x="297" y="-180"/>
      <point x="302" y="-169" type="curve" smooth="yes"/>
      <point x="584" y="486" type="line"/>
      <point x="586" y="492"/>
      <point x="587" y="496"/>
      <point x="587" y="499" type="curve" smooth="yes"/>
      <point x="587" y="510"/>
      <point x="577" y="520"/>
      <point x="565" y="520" type="curve" smooth="yes"/>
      <point x="447" y="520" type="line" smooth="yes"/>
      <point x="429" y="520"/>
      <point x="421" y="510"/>
      <point x="417" y="499" type="curve" smooth="yes"/>
      <point x="303" y="215" type="line"/>
      <point x="192" y="499" type="line" smooth="yes"/>
      <point x="188" y="509"/>
      <point x="181" y="520"/>
      <point x="163" y="520" type="curve" smooth="yes"/>
      <point x="43" y="520" type="line" smooth="yes"/>
      <point x="31" y="520"/>
      <point x="21" y="510"/>
      <point x="20" y="497" type="curve" smooth="yes"/>
      <point x="20" y="494"/>
      <point x="21" y="491"/>
      <point x="23" y="486" type="curve" smooth="yes"/>
      <point x="215" y="32" type="line"/>
      <point x="136" y="-156" type="line" smooth="yes"/>
      <point x="133" y="-162"/>
      <point x="133" y="-166"/>
      <point x="133" y="-169" type="curve" smooth="yes"/>
      <point x="133" y="-181"/>
      <point x="143" y="-190"/>
      <point x="155" y="-190" type="curve" smooth="yes"/>
    </contour>
  </outline>
</glyph>
<glyph name="acute" format="1">
  <advance width="404"/>
  <unicode hex="00B4"/>
  <outline>
    <contour>
      <point x="168" y="595" type="line" smooth="yes"/>
      <point x="186" y="595"/>
      <point x="195" y="601"/>
      <point x="206" y="610" type="curve" smooth="yes"/>
      <point x="340" y="720" type="line" smooth="yes"/>
      <point x="343" y="723"/>
      <point x="345" y="727"/>
      <point x="345" y="732" type="curve" smooth="yes"/>
      <point x="345" y="744"/>
      <point x="338" y="752"/>
      <point x="326" y="752" type="curve" smooth="yes"/>
      <point x="189" y="752" type="line" smooth="yes"/>
      <point x="172" y="752"/>
      <point x="165" y="749"/>
      <point x="152" y="733" type="curve"/>
      <point x="62" y="624" type="line" smooth="yes"/>
      <point x="59" y="621"/>
      <point x="57" y="616"/>
      <point x="57" y="611" type="curve" smooth="yes"/>
      <point x="57" y="601"/>
      <point x="63" y="595"/>
      <point x="73" y="595" type="curve" smooth="yes"/>
    </contour>
  </outline>
</glyph>
<glyph name="paragraph" format="1">
  <advance width="636"/>
  <unicode hex="00B6"/>
  <outline>
    <contour>
      <point x="328" y="-100" type="line" smooth="yes"/>
      <point x="342" y="-100"/>
      <point x="353" y="-89"/>
      <point x="353" y="-75" type="curve" smooth="yes"/>
      <point x="353" y="581" type="line"/>
      <point x="432" y="581" type="line"/>
      <point x="432" y="-75" type="line" smooth="yes"/>
      <point x="432" y="-89"/>
      <point x="443" y="-100"/>
      <point x="458" y="-100" type="curve" smooth="yes"/>
      <point x="544" y="-100" type="line" smooth="yes"/>
      <point x="558" y="-100"/>
      <point x="569" y="-89"/>
      <point x="569" y="-75" type="curve" smooth="yes"/>
      <point x="569" y="675" type="line" smooth="yes"/>
      <point x="569" y="689"/>
      <point x="558" y="700"/>
      <point x="544" y="700" type="curve" smooth="yes"/>
      <point x="216" y="700" type="line" smooth="yes"/>
      <point x="111" y="700"/>
      <point x="26" y="615"/>
      <point x="26" y="510" type="curve" smooth="yes"/>
      <point x="26" y="404"/>
      <point x="111" y="319"/>
      <point x="216" y="319" type="curve"/>
      <point x="216" y="-75" type="line" smooth="yes"/>
      <point x="216" y="-89"/>
      <point x="227" y="-100"/>
      <point x="242" y="-100" type="curve" smooth="yes"/>
    </contour>
  </outline>
</glyph>
<glyph name="guillemetright" format="1">
  <advance width="622"/>
  <unicode hex="00BB"/>
  <outline>
    <contour>
      <point x="357" y="65"/>
      <point x="364" y="67"/>
      <point x="371" y="73" type="curve" smooth="yes"/>
      <point x="578" y="274" type="line" smooth="yes"/>
      <point x="588" y="283"/>
      <point x="593" y="293"/>
      <point x="593" y="304" type="curve" smooth="yes"/>
      <point x="593" y="354" type="line" smooth="yes"/>
      <point x="593" y="365"/>
      <point x="588" y="375"/>
      <point x="578" y="384" type="curve" smooth="yes"/>
      <point x="371" y="585" type="line" smooth="yes"/>
      <point x="364" y="591"/>
      <point x="357" y="593"/>
      <point x="353" y="593" type="curve" smooth="yes"/>
      <point x="341" y="593"/>
      <point x="332" y="583"/>
      <point x="332" y="571" type="curve" smooth="yes"/>
      <point x="332" y="472" type="line" smooth="yes"/>
      <point x="332" y="451"/>
      <point x="337" y="443"/>
      <point x="350" y="430" type="curve" smooth="yes"/>
      <point x="452" y="329" type="line"/>
      <point x="350" y="228" type="line" smooth="yes"/>
      <point x="337" y="215"/>
      <point x="332" y="207"/>
      <point x="332" y="186" type="curve" smooth="yes"/>
      <point x="332" y="87" type="line" smooth="yes"/>
      <point x="332" y="75"/>
      <point x="341" y="65"/>
      <point x="353" y="65" type="curve" smooth="yes"/>
    </contour>
    <contour>
      <point x="80" y="65"/>
      <point x="87" y="67"/>
      <point x="94" y="73" type="curve" smooth="yes"/>
      <point x="301" y="274" type="line" smooth="yes"/>
      <point x="311" y="283"/>
      <point x="316" y="293"/>
      <point x="316" y="304" type="curve" smooth="yes"/>
      <point x="316" y="354" type="line" smooth="yes"/>
      <point x="316" y="365"/>
      <point x="311" y="375"/>
      <point x="301" y="384" type="curve" smooth="yes"/>
      <point x="94" y="585" type="line" smooth="yes"/>
      <point x="87" y="591"/>
      <point x="80" y="593"/>
      <point x="76" y="593" type="curve" smooth="yes"/>
      <point x="64" y="593"/>
      <point x="55" y="583"/>
      <point x="55" y="571" type="curve" smooth="yes"/>
      <point x="55" y="472" type="line" smooth="yes"/>
      <point x="55" y="451"/>
      <point x="60" y="443"/>
      <point x="73" y="430" type="curve" smooth="yes"/>
      <point x="175" y="329" type="line"/>
      <point x="73" y="228" type="line" smooth="yes"/>
      <point x="60" y="215"/>
      <point x="55" y="207"/>
      <point x="55" y="186" type="curve" smooth="yes"/>
      <point x="55" y="87" type="line" smooth="yes"/>
      <point x="55" y="75"/>
      <point x="64" y="65"/>
      <point x="76" y="65" type="curve" smooth="yes"/>
    </contour>
  </outline>
</glyph>
<glyph name="Oslash" format="1">
  <advance width="747"/>
  <unicode hex="00D8"/>
  <outline>
    <contour>
      <point x="562" y="-10"/>
      <point x="680" y="80"/>
      <point x="687" y="262" type="curve"/>
      <point x="688" y="311"/>
      <point x="689" y="363"/>
      <point x="688" y="415" type="curve"/>
      <point x="715" y="426" type="line"/>
      <point x="731" y="432"/>
      <point x="737" y="439"/>
      <point x="737" y="456" type="curve"/>
      <point x="737" y="534" type="line"/>
      <point x="737" y="546"/>
      <point x="728" y="554"/>
      <point x="717" y="554" type="curve" smooth="yes"/>
      <point x="714" y="554"/>
      <point x="710" y="553"/>
      <point x="705" y="551" type="curve"/>
      <point x="665" y="535" type="line"/>
      <point x="623" y="650"/>
      <point x="518" y="710"/>
      <point x="376" y="710" type="curve" smooth="yes"/>
      <point x="194" y="710"/>
      <point x="72" y="614"/>
      <point x="66" y="435" type="curve" smooth="yes"/>
      <point x="64" y="390"/>
      <point x="63" y="346"/>
      <point x="64" y="301" type="curve"/>
      <point x="34" y="289" type="line"/>
      <point x="18" y="283"/>
      <point x="12" y="276"/>
      <point x="12" y="259" type="curve"/>
      <point x="12" y="180" type="line"/>
      <point x="12" y="168"/>
      <point x="21" y="160"/>
      <point x="32" y="160" type="curve" smooth="yes"/>
      <point x="35" y="160"/>
      <point x="39" y="161"/>
      <point x="44" y="163" type="curve"/>
      <point x="81" y="177" type="line"/>
      <point x="117" y="51"/>
      <point x="223" y="-10"/>
      <point x="376" y="-10" type="curve" smooth="yes"/>
    </contour>
    <contour>
      <point x="314" y="140"/>
      <point x="270" y="173"/>
      <point x="261" y="248" type="curve"/>
      <point x="494" y="339" type="line"/>
      <point x="494" y="314"/>
      <point x="493" y="294"/>
      <point x="493" y="268" type="curve" smooth="yes"/>
      <point x="490" y="178"/>
      <point x="444" y="140"/>
      <point x="376" y="140" type="curve" smooth="yes"/>
    </contour>
    <contour>
      <point x="258" y="395"/>
      <point x="258" y="412"/>
      <point x="260" y="432" type="curve"/>
      <point x="263" y="522"/>
      <point x="310" y="560"/>
      <point x="376" y="560" type="curve" smooth="yes"/>
      <point x="433" y="560"/>
      <point x="475" y="532"/>
      <point x="487" y="466" type="curve"/>
      <point x="258" y="377" type="line"/>
    </contour>
  </outline>
</glyph>
<glyph name="ccedilla" format="1">
  <advance width="593"/>
  <unicode hex="00E7"/>
  <outline>
    <contour>
      <point x="360" y="-220"/>
      <point x="396" y="-182"/>
      <point x="396" y="-131" type="curve" smooth="yes"/>
      <point x="396" y="-79"/>
      <point x="366" y="-43"/>
      <point x="317" y="-43" type="curve" smooth="yes"/>
      <point x="309" y="-43"/>
      <point x="292" y="-46"/>
      <point x="284" y="-49" type="curve"/>
      <point x="304" y="-10" type="line"/>
      <point x="494" y="-8"/>
      <point x="561" y="120"/>
      <point x="564" y="172" type="curve" smooth="yes"/>
      <point x="565" y="187"/>
      <point x="552" y="198"/>
      <point x="538" y="198" type="curve"/>
      <point x="404" y="198" type="line"/>
      <point x="389" y="198"/>
      <point x="382" y="191"/>
      <point x="376" y="177" type="curve" smooth="yes"/>
      <point x="362" y="139"/>
      <point x="342" y="123"/>
      <point x="303" y="123" type="curve" smooth="yes"/>
      <point x="252" y="123"/>
      <point x="225" y="154"/>
      <point x="223" y="224" type="curve" smooth="yes"/>
      <point x="222" y="244"/>
      <point x="222" y="269"/>
      <point x="223" y="295" type="curve" smooth="yes"/>
      <point x="225" y="363"/>
      <point x="252" y="397"/>
      <point x="303" y="397" type="curve" smooth="yes"/>
      <point x="339" y="397"/>
      <point x="361" y="381"/>
      <point x="376" y="343" type="curve" smooth="yes"/>
      <point x="382" y="329"/>
      <point x="389" y="322"/>
      <point x="404" y="322" type="curve"/>
      <point x="538" y="322" type="line"/>
      <point x="552" y="322"/>
      <point x="565" y="333"/>
      <point x="564" y="348" type="curve" smooth="yes"/>
      <point x="561" y="407"/>
      <point x="487" y="530"/>
      <point x="299" y="530" type="curve" smooth="yes"/>
      <point x="150" y="530"/>
      <point x="45" y="446"/>
      <point x="39" y="300" type="curve" smooth="yes"/>
      <point x="38" y="278"/>
      <point x="38" y="240"/>
      <point x="39" y="219" type="curve" smooth="yes"/>
      <point x="45" y="91"/>
      <point x="125" y="12"/>
      <point x="244" y="-6" type="curve"/>
      <point x="224" y="-52" type="line"/>
      <point x="217" y="-68"/>
      <point x="215" y="-76"/>
      <point x="224" y="-84" type="curve"/>
      <point x="243" y="-104" type="line"/>
      <point x="257" y="-118"/>
      <point x="276" y="-103"/>
      <point x="299" y="-103" type="curve" smooth="yes"/>
      <point x="320" y="-103"/>
      <point x="332" y="-115"/>
      <point x="332" y="-131" type="curve" smooth="yes"/>
      <point x="332" y="-148"/>
      <point x="319" y="-161"/>
      <point x="299" y="-161" type="curve" smooth="yes"/>
      <point x="262" y="-161"/>
      <point x="256" y="-137"/>
      <point x="239" y="-153" type="curve"/>
      <point x="220" y="-169" type="line"/>
      <point x="200" y="-187"/>
      <point x="245" y="-220"/>
      <point x="299" y="-220" type="curve" smooth="yes"/>
    </contour>
  </outline>
</glyph>
<glyph name="OE" format="1">
  <advance width="968"/>
  <unicode hex="0152"/>
  <outline>
    <contour>
      <point x="899" y="0" type="line"/>
      <point x="914" y="0"/>
      <point x="925" y="11"/>
      <point x="925" y="25" type="curve"/>
      <point x="925" y="124" type="line"/>
      <point x="925" y="139"/>
      <point x="914" y="150"/>
      <point x="899" y="150" type="curve"/>
      <point x="601" y="150" type="line"/>
      <point x="601" y="280" type="line"/>
      <point x="869" y="280" type="line"/>
      <point x="884" y="280"/>
      <point x="895" y="291"/>
      <point x="895" y="306" type="curve"/>
      <point x="895" y="397" type="line"/>
      <point x="895" y="412"/>
      <point x="884" y="423"/>
      <point x="869" y="423" type="curve"/>
      <point x="601" y="423" type="line"/>
      <point x="601" y="550" type="line"/>
      <point x="891" y="550" type="line"/>
      <point x="906" y="550"/>
      <point x="917" y="561"/>
      <point x="917" y="575" type="curve"/>
      <point x="917" y="674" type="line"/>
      <point x="917" y="689"/>
      <point x="906" y="700"/>
      <point x="891" y="700" type="curve"/>
      <point x="362" y="700" type="line"/>
      <point x="167" y="700"/>
      <point x="52" y="604"/>
      <point x="47" y="427" type="curve" smooth="yes"/>
      <point x="45" y="369"/>
      <point x="45" y="330"/>
      <point x="47" y="274" type="curve" smooth="yes"/>
      <point x="53" y="87"/>
      <point x="161" y="0"/>
      <point x="357" y="0" type="curve"/>
    </contour>
    <contour>
      <point x="280" y="150"/>
      <point x="240" y="187"/>
      <point x="237" y="276" type="curve" smooth="yes"/>
      <point x="235" y="334"/>
      <point x="235" y="368"/>
      <point x="237" y="425" type="curve" smooth="yes"/>
      <point x="240" y="511"/>
      <point x="284" y="550"/>
      <point x="367" y="550" type="curve"/>
      <point x="421" y="550" type="line"/>
      <point x="421" y="150" type="line"/>
      <point x="362" y="150" type="line"/>
    </contour>
  </outline>
</glyph>
<glyph name="jdotless" format="1">
  <advance width="411"/>
  <unicode hex="0237"/>
  <outline>
    <contour>
      <point x="133" y="-190" type="line"/>
      <point x="271" y="-190"/>
      <point x="354" y="-101"/>
      <point x="354" y="39" type="curve" smooth="yes"/>
      <point x="354" y="495" type="line" smooth="yes"/>
      <point x="354" y="509"/>
      <point x="343" y="520"/>
      <point x="328" y="520" type="curve" smooth="yes"/>
      <point x="49" y="520" type="line" smooth="yes"/>
      <point x="34" y="520"/>
      <point x="23" y="509"/>
      <point x="23" y="495" type="curve" smooth="yes"/>
      <point x="23" y="404" type="line" smooth="yes"/>
      <point x="23" y="390"/>
      <point x="34" y="379"/>
      <point x="49" y="379" type="curve" smooth="yes"/>
      <point x="171" y="379" type="line"/>
      <point x="171" y="39" type="line" smooth="yes"/>
      <point x="171" y="-2"/>
      <point x="159" y="-31"/>
      <point x="112" y="-31" type="curve" smooth="yes"/>
      <point x="43" y="-31" type="line" smooth="yes"/>
      <point x="29" y="-31"/>
      <point x="18" y="-42"/>
      <point x="18" y="-56" type="curve" smooth="yes"/>
      <point x="18" y="-165" type="line" smooth="yes"/>
      <point x="18" y="-179"/>
      <point x="29" y="-190"/>
      <point x="43" y="-190" type="curve" smooth="yes"/>
    </contour>
  </outline>
</glyph>
<glyph name="Nje-cy" format="1">
  <advance width="1054"/>
  <unicode hex="040A"/>
  <outline>
    <contour>
      <point x="230" y="0" type="line" smooth="yes"/>
      <point x="245" y="0"/>
      <point x="256" y="11"/>
      <point x="256" y="25" type="curve" smooth="yes"/>
      <point x="256" y="270" type="line"/>
      <point x="456" y="270" type="line"/>
      <point x="456" y="25" type="line" smooth="yes"/>
      <point x="456" y="11"/>
      <point x="467" y="0"/>
      <point x="481" y="0" type="curve" smooth="yes"/>
      <point x="754" y="0" type="line" smooth="yes"/>
      <point x="927" y="0"/>
      <point x="1028" y="91"/>
      <point x="1028" y="231" type="curve" smooth="yes"/>
      <point x="1028" y="382"/>
      <point x="923" y="456"/>
      <point x="754" y="456" type="curve" smooth="yes"/>
      <point x="650" y="456" type="line"/>
      <point x="650" y="674" type="line" smooth="yes"/>
      <point x="650" y="689"/>
      <point x="639" y="700"/>
      <point x="624" y="700" type="curve" smooth="yes"/>
      <point x="481" y="700" type="line" smooth="yes"/>
      <point x="467" y="700"/>
      <point x="456" y="689"/>
      <point x="456" y="674" type="curve" smooth="yes"/>
      <point x="456" y="437" type="line"/>
      <point x="256" y="437" type="line"/>
      <point x="256" y="674" type="line" smooth="yes"/>
      <point x="256" y="689"/>
      <point x="245" y="700"/>
      <point x="230" y="700" type="curve" smooth="yes"/>
      <point x="93" y="700" type="line" smooth="yes"/>
      <point x="79" y="700"/>
      <point x="68" y="689"/>
      <point x="68" y="674" type="curve" smooth="yes"/>
      <point x="68" y="25" type="line" smooth="yes"/>
      <point x="68" y="10"/>
      <point x="79" y="0"/>
      <point x="93" y="0" type="curve" smooth="yes"/>
    </contour>
    <contour>
      <point x="647" y="312" type="line"/>
      <point x="751" y="312" type="line" smooth="yes"/>
      <point x="801" y="312"/>
      <point x="834" y="284"/>
      <point x="834" y="231" type="curve" smooth="yes"/>
      <point x="834" y="188"/>
      <point x="808" y="144"/>
      <point x="751" y="144" type="curve" smooth="yes"/>
      <point x="647" y="144" type="line"/>
    </contour>
  </outline>
</glyph>
<glyph name="U-cy" format="1">
  <advance width="666"/>
  <unicode hex="0423"/>
  <outline>
    <contour>
      <point x="184" y="0" type="line" smooth="yes"/>
      <point x="334" y="0"/>
      <point x="388" y="71"/>
      <point x="448" y="204" type="curve" smooth="yes"/>
      <point x="663" y="669" type="line" smooth="yes"/>
      <point x="665" y="673"/>
      <point x="665" y="676"/>
      <point x="665" y="679" type="curve" smooth="yes"/>
      <point x="665" y="690"/>
      <point x="655" y="700"/>
      <point x="643" y="700" type="curve" smooth="yes"/>
      <point x="498" y="700" type="line" smooth="yes"/>
      <point x="482" y="700"/>
      <point x="473" y="690"/>
      <point x="468" y="679" type="curve" smooth="yes"/>
      <point x="345" y="411" type="line"/>
      <point x="211" y="679" type="line" smooth="yes"/>
      <point x="206" y="690"/>
      <point x="198" y="700"/>
      <point x="182" y="700" type="curve" smooth="yes"/>
      <point x="35" y="700" type="line" smooth="yes"/>
      <point x="23" y="700"/>
      <point x="13" y="690"/>
      <point x="12" y="677" type="curve" smooth="yes"/>
      <point x="12" y="674"/>
      <point x="12" y="672"/>
      <point x="14" y="669" type="curve" smooth="yes"/>
      <point x="250" y="221" type="line"/>
      <point x="234" y="189"/>
      <point x="205" y="163"/>
      <point x="167" y="163" type="curve" smooth="yes"/>
      <point x="89" y="163" type="line"/>
      <point x="75" y="163"/>
      <point x="64" y="152"/>
      <point x="64" y="137" type="curve" smooth="yes"/>
      <point x="64" y="25" type="line" smooth="yes"/>
      <point x="64" y="11"/>
      <point x="75" y="0"/>
      <point x="89" y="0" type="curve" smooth="yes"/>
    </contour>
  </outline>
</glyph>
<glyph name="de-cy" format="1">
  <advance width="623"/>
  <unicode hex="0434"/>
  <outline>
    <contour>
      <point x="141" y="-110" type="line" smooth="yes"/>
      <point x="156" y="-110"/>
      <point x="167" y="-99"/>
      <point x="167" y="-85" type="curve" smooth="yes"/>
      <point x="167" y="0" type="line"/>
      <point x="443" y="0" type="line"/>
      <point x="443" y="-85" type="line" smooth="yes"/>
      <point x="443" y="-99"/>
      <point x="454" y="-110"/>
      <point x="468" y="-110" type="curve" smooth="yes"/>
      <point x="563" y="-110" type="line"/>
      <point x="577" y="-110"/>
      <point x="588" y="-99"/>
      <point x="588" y="-85" type="curve" smooth="yes"/>
      <point x="588" y="105" type="line" smooth="yes"/>
      <point x="588" y="119"/>
      <point x="577" y="130"/>
      <point x="563" y="130" type="curve" smooth="yes"/>
      <point x="530" y="130" type="line"/>
      <point x="530" y="495" type="line" smooth="yes"/>
      <point x="530" y="509"/>
      <point x="519" y="520"/>
      <point x="505" y="520" type="curve" smooth="yes"/>
      <point x="138" y="520" type="line" smooth="yes"/>
      <point x="124" y="520"/>
      <point x="113" y="509"/>
      <point x="113" y="495" type="curve" smooth="yes"/>
      <point x="113" y="191" type="line" smooth="yes"/>
      <point x="113" y="150"/>
      <point x="100" y="130"/>
      <point x="72" y="129" type="curve" smooth="yes"/>
      <point x="46" y="129" type="line" smooth="yes"/>
      <point x="32" y="129"/>
      <point x="21" y="118"/>
      <point x="21" y="104" type="curve" smooth="yes"/>
      <point x="21" y="-85" type="line" smooth="yes"/>
      <point x="21" y="-99"/>
      <point x="32" y="-110"/>
      <point x="46" y="-110" type="curve" smooth="yes"/>
    </contour>
    <contour>
      <point x="263" y="143"/>
      <point x="271" y="161"/>
      <point x="271" y="188" type="curve" smooth="yes"/>
      <point x="271" y="391" type="line"/>
      <point x="371" y="391" type="line"/>
      <point x="371" y="133" type="line"/>
      <point x="262" y="133" type="line"/>
    </contour>
  </outline>
</glyph>
<glyph name="ii-cy" format="1">
  <advance width="641"/>
  <unicode hex="0438"/>
  <outline>
    <contour>
      <point x="207" y="0" type="line" smooth="yes"/>
      <point x="217" y="0"/>
      <point x="226" y="5"/>
      <point x="231" y="12" type="curve" smooth="yes"/>
      <point x="408" y="265" type="line"/>
      <point x="408" y="25" type="line" smooth="yes"/>
      <point x="408" y="11"/>
      <point x="419" y="0"/>
      <point x="433" y="0" type="curve" smooth="yes"/>
      <point x="558" y="0" type="line" smooth="yes"/>
      <point x="573" y="0"/>
      <point x="584" y="11"/>
      <point x="584" y="25" type="curve" smooth="yes"/>
      <point x="584" y="496" type="line" smooth="yes"/>
      <point x="584" y="509"/>
      <point x="572" y="520"/>
      <point x="559" y="520" type="curve" smooth="yes"/>
      <point x="433" y="520" type="line" smooth="yes"/>
      <point x="422" y="520"/>
      <point x="415" y="514"/>
      <point x="409" y="506" type="curve" smooth="yes"/>
      <point x="233" y="255" type="line"/>
      <point x="233" y="495" type="line" smooth="yes"/>
      <point x="233" y="509"/>
      <point x="222" y="520"/>
      <point x="207" y="520" type="curve" smooth="yes"/>
      <point x="82" y="520" type="line" smooth="yes"/>
      <point x="68" y="520"/>
      <point x="57" y="509"/>
      <point x="57" y="495" type="curve" smooth="yes"/>
      <point x="57" y="25" type="line" smooth="yes"/>
      <point x="57" y="11"/>
      <point x="67" y="0"/>
      <point x="81" y="0" type="curve" smooth="yes"/>
    </contour>
  </outline>
</glyph>
<glyph name="pe-cy" format="1">
  <advance width="641"/>
  <unicode hex="043F"/>
  <outline>
    <contour>
      <point x="207" y="0" type="line" smooth="yes"/>
      <point x="222" y="0"/>
      <point x="233" y="11"/>
      <point x="233" y="25" type="curve" smooth="yes"/>
      <point x="233" y="384" type="line"/>
      <point x="408" y="384" type="line"/>
      <point x="408" y="25" type="line" smooth="yes"/>
      <point x="408" y="11"/>
      <point x="419" y="0"/>
      <point x="433" y="0" type="curve" smooth="yes"/>
      <point x="558" y="0" type="line" smooth="yes"/>
      <point x="573" y="0"/>
      <point x="584" y="11"/>
      <point x="584" y="25" type="curve" smooth="yes"/>
      <point x="584" y="495" type="line" smooth="yes"/>
      <point x="584" y="509"/>
      <point x="573" y="520"/>
      <point x="558" y="520" type="curve" smooth="yes"/>
      <point x="82" y="520" type="line" smooth="yes"/>
      <point x="68" y="520"/>
      <point x="57" y="509"/>
      <point x="57" y="495" type="curve" smooth="yes"/>
      <point x="57" y="25" type="line" smooth="yes"/>
      <point x="57" y="11"/>
      <point x="68" y="0"/>
      <point x="82" y="0" type="curve" smooth="yes"/>
    </contour>
  </outline>
</glyph>
<glyph name="ef-cy" format="1">
  <advance width="936"/>
  <unicode hex="0444"/>
  <outline>
    <contour>
      <point x="532" y="-190" type="line" smooth="yes"/>
      <point x="547" y="-190"/>
      <point x="558" y="-179"/>
      <point x="558" y="-165" type="curve" smooth="yes"/>
      <point x="558" y="56" type="line"/>
      <point x="589" y="13"/>
      <point x="631" y="-10"/>
      <point x="692" y="-10" type="curve" smooth="yes"/>
      <point x="818" y="-10"/>
      <point x="890" y="79"/>
      <point x="895" y="222" type="curve" smooth="yes"/>
      <point x="896" y="249"/>
      <point x="896" y="270"/>
      <point x="895" y="297" type="curve" smooth="yes"/>
      <point x="889" y="447"/>
      <point x="818" y="530"/>
      <point x="692" y="530" type="curve" smooth="yes"/>
      <point x="622" y="530"/>
      <point x="589" y="507"/>
      <point x="558" y="466" type="curve"/>
      <point x="558" y="685" type="line" smooth="yes"/>
      <point x="558" y="699"/>
      <point x="547" y="710"/>
      <point x="532" y="710" type="curve" smooth="yes"/>
      <point x="403" y="710" type="line" smooth="yes"/>
      <point x="388" y="710"/>
      <point x="377" y="699"/>
      <point x="377" y="685" type="curve" smooth="yes"/>
      <point x="377" y="466" type="line"/>
      <point x="346" y="507"/>
      <point x="313" y="530"/>
      <point x="243" y="530" type="curve" smooth="yes"/>
      <point x="117" y="530"/>
      <point x="46" y="447"/>
      <point x="40" y="297" type="curve" smooth="yes"/>
      <point x="39" y="270"/>
      <point x="39" y="249"/>
      <point x="40" y="222" type="curve" smooth="yes"/>
      <point x="45" y="79"/>
      <point x="117" y="-10"/>
      <point x="243" y="-10" type="curve" smooth="yes"/>
      <point x="304" y="-10"/>
      <point x="346" y="13"/>
      <point x="377" y="56" type="curve"/>
      <point x="377" y="-165" type="line" smooth="yes"/>
      <point x="377" y="-179"/>
      <point x="388" y="-190"/>
      <point x="403" y="-190" type="curve" smooth="yes"/>
    </contour>
    <contour>
      <point x="246" y="129"/>
      <point x="228" y="173"/>
      <point x="224" y="229" type="curve" smooth="yes"/>
      <point x="222" y="249"/>
      <point x="222" y="271"/>
      <point x="224" y="291" type="curve" smooth="yes"/>
      <point x="228" y="347"/>
      <point x="246" y="391"/>
      <point x="300" y="391" type="curve" smooth="yes"/>
      <point x="356" y="391"/>
      <point x="375" y="345"/>
      <point x="377" y="294" type="curve" smooth="yes"/>
      <point x="379" y="267"/>
      <point x="379" y="245"/>
      <point x="377" y="219" type="curve" smooth="yes"/>
      <point x="375" y="171"/>
      <point x="353" y="129"/>
      <point x="300" y="129" type="curve" smooth="yes"/>
    </contour>
    <contour>
      <point x="582" y="129"/>
      <point x="560" y="171"/>
      <point x="558" y="219" type="curve" smooth="yes"/>
      <point x="556" y="245"/>
      <point x="556" y="267"/>
      <point x="558" y="294" type="curve" smooth="yes"/>
      <point x="560" y="345"/>
      <point x="579" y="391"/>
      <point x="635" y="391" type="curve" smooth="yes"/>
      <point x="689" y="391"/>
      <point x="707" y="347"/>
      <point x="711" y="291" type="curve" smooth="yes"/>
      <point x="713" y="271"/>
      <point x="713" y="249"/>
      <point x="711" y="229" type="curve" smooth="yes"/>
      <point x="707" y="173"/>
      <point x="689" y="129"/>
      <point x="635" y="129" type="curve" smooth="yes"/>
    </contour>
  </outline>
</glyph>
<glyph name="hardsign-cy" format="1">
  <advance width="674"/>
  <unicode hex="044A"/>
  <outline>
    <contour>
      <point x="402" y="0" type="line"/>
      <point x="575" y="0"/>
      <point x="650" y="93"/>
      <point x="650" y="203" type="curve" smooth="yes"/>
      <point x="650" y="324"/>
      <point x="555" y="414"/>
      <point x="407" y="414" type="curve" smooth="yes"/>
      <point x="324" y="414" type="line"/>
      <point x="324" y="493" type="line" smooth="yes"/>
      <point x="324" y="508"/>
      <point x="312" y="520"/>
      <point x="297" y="520" type="curve" smooth="yes"/>
      <point x="41" y="520" type="line" smooth="yes"/>
      <point x="27" y="520"/>
      <point x="16" y="509"/>
      <point x="16" y="495" type="curve" smooth="yes"/>
      <point x="16" y="409" type="line" smooth="yes"/>
      <point x="16" y="395"/>
      <point x="27" y="384"/>
      <point x="41" y="384" type="curve" smooth="yes"/>
      <point x="145" y="384" type="line"/>
      <point x="145" y="25" type="line" smooth="yes"/>
      <point x="145" y="11"/>
      <point x="156" y="0"/>
      <point x="170" y="0" type="curve" smooth="yes"/>
    </contour>
    <contour>
      <point x="321" y="278" type="line"/>
      <point x="405" y="278" type="line" smooth="yes"/>
      <point x="462" y="278"/>
      <point x="486" y="246"/>
      <point x="486" y="206" type="curve" smooth="yes"/>
      <point x="486" y="167"/>
      <point x="464" y="137"/>
      <point x="405" y="137" type="curve" smooth="yes"/>
      <point x="321" y="137" type="line"/>
    </contour>
  </outline>
</glyph>
<glyph name="Gheupturn-cy" format="1">
  <advance width="600"/>
  <unicode hex="0490"/>
  <outline>
    <contour>
      <point x="233" y="0" type="line" smooth="yes"/>
      <point x="247" y="0"/>
      <point x="258" y="11"/>
      <point x="258" y="25" type="curve" smooth="yes"/>
      <point x="258" y="543" type="line"/>
      <point x="558" y="543" type="line"/>
      <point x="573" y="543"/>
      <point x="584" y="554"/>
      <point x="584" y="569" type="curve" smooth="yes"/>
      <point x="584" y="785" type="line" smooth="yes"/>
      <point x="584" y="799"/>
      <point x="573" y="810"/>
      <point x="558" y="810" type="curve" smooth="yes"/>
      <point x="445" y="810" type="line" smooth="yes"/>
      <point x="430" y="810"/>
      <point x="419" y="799"/>
      <point x="419" y="785" type="curve" smooth="yes"/>
      <point x="419" y="700" type="line"/>
      <point x="93" y="700" type="line" smooth="yes"/>
      <point x="79" y="700"/>
      <point x="68" y="689"/>
      <point x="68" y="674" type="curve" smooth="yes"/>
      <point x="68" y="25" type="line" smooth="yes"/>
      <point x="68" y="11"/>
      <point x="79" y="0"/>
      <point x="93" y="0" type="curve" smooth="yes"/>
    </contour>
  </outline>
</glyph>
<glyph name="mem-hb" format="1">
  <advance width="680"/>
  <unicode hex="05DE"/>
  <outline>
    <contour>
      <point x="602" y="0" type="line" smooth="yes"/>
      <point x="616" y="0"/>
      <point x="627" y="11"/>
      <point x="627" y="25" type="curve" smooth="yes"/>
      <point x="627" y="327" type="line" smooth="yes"/>
      <point x="627" y="498"/>
      <point x="527" y="577"/>
      <point x="393" y="577" type="curve" smooth="yes"/>
      <point x="265" y="577"/>
      <point x="169" y="442"/>
      <point x="145" y="333" type="curve"/>
      <point x="150" y="255" type="line"/>
      <point x="184" y="358"/>
      <point x="278" y="438"/>
      <point x="368" y="437" type="curve" smooth="yes"/>
      <point x="420" y="437"/>
      <point x="458" y="395"/>
      <point x="458" y="321" type="curve" smooth="yes"/>
      <point x="458" y="136" type="line"/>
      <point x="329" y="136" type="line" smooth="yes"/>
      <point x="315" y="136"/>
      <point x="304" y="125"/>
      <point x="304" y="111" type="curve" smooth="yes"/>
      <point x="304" y="25" type="line" smooth="yes"/>
      <point x="304" y="11"/>
      <point x="315" y="0"/>
      <point x="329" y="0" type="curve" smooth="yes"/>
    </contour>
    <contour>
      <point x="175" y="0" type="line" smooth="yes"/>
      <point x="189" y="0"/>
      <point x="201" y="11"/>
      <point x="201" y="26" type="curve"/>
      <point x="298" y="442" type="line" smooth="yes"/>
      <point x="302" y="455"/>
      <point x="289" y="467"/>
      <point x="274" y="468" type="curve" smooth="yes"/>
      <point x="160" y="469" type="line" smooth="yes"/>
      <point x="146" y="469"/>
      <point x="137" y="458"/>
      <point x="134" y="445" type="curve" smooth="yes"/>
      <point x="36" y="26" type="line" smooth="yes"/>
      <point x="33" y="11"/>
      <point x="46" y="0"/>
      <point x="60" y="0" type="curve" smooth="yes"/>
    </contour>
    <contour>
      <point x="64" y="571"/>
      <point x="49" y="558"/>
      <point x="54" y="545" type="curve" smooth="yes"/>
      <point x="109" y="399" type="line" smooth="yes"/>
      <point x="114" y="384"/>
      <point x="121" y="374"/>
      <point x="135" y="375" type="curve" smooth="yes"/>
      <point x="258" y="376" type="line" smooth="yes"/>
      <point x="272" y="377"/>
      <point x="286" y="389"/>
      <point x="282" y="402" type="curve" smooth="yes"/>
      <point x="229" y="545" type="line" smooth="yes"/>
      <point x="224" y="558"/>
      <point x="217" y="571"/>
      <point x="203" y="571" type="curve" smooth="yes"/>
      <point x="78" y="571" type="line" smooth="yes"/>
    </contour>
    <contour>
      <point x="355" y="260" type="move" name="center"/>
    </contour>
    <contour>
      <point x="338" y="520" type="move" name="top"/>
    </contour>
    <contour>
      <point x="16" y="0" type="move" name="bottomleft"/>
    </contour>
    <contour>
      <point x="16" y="520" type="move" name="topleft"/>
    </contour>
    <contour>
      <point x="343" y="0" type="move" name="bottom"/>
    </contour>
  </outline>
</glyph>
<glyph name="dagger" format="1">
  <advance width="481"/>
  <unicode hex="2020"/>
  <outline>
    <contour>
      <point x="288" y="0" type="line" smooth="yes"/>
      <point x="303" y="0"/>
      <point x="314" y="11"/>
      <point x="314" y="25" type="curve" smooth="yes"/>
      <point x="314" y="381" type="line"/>
      <point x="427" y="381" type="line" smooth="yes"/>
      <point x="442" y="381"/>
      <point x="453" y="392"/>
      <point x="453" y="406" type="curve" smooth="yes"/>
      <point x="453" y="499" type="line" smooth="yes"/>
      <point x="453" y="513"/>
      <point x="442" y="524"/>
      <point x="427" y="524" type="curve" smooth="yes"/>
      <point x="314" y="524" type="line"/>
      <point x="314" y="675" type="line" smooth="yes"/>
      <point x="314" y="689"/>
      <point x="303" y="700"/>
      <point x="288" y="700" type="curve" smooth="yes"/>
      <point x="193" y="700" type="line" smooth="yes"/>
      <point x="179" y="700"/>
      <point x="168" y="689"/>
      <point x="168" y="675" type="curve" smooth="yes"/>
      <point x="168" y="524" type="line"/>
      <point x="54" y="524" type="line"/>
      <point x="40" y="524"/>
      <point x="29" y="513"/>
      <point x="29" y="499" type="curve" smooth="yes"/>
      <point x="29" y="406" type="line" smooth="yes"/>
      <point x="29" y="392"/>
      <point x="40" y="381"/>
      <point x="54" y="381" type="curve" smooth="yes"/>
      <point x="168" y="381" type="line"/>
      <point x="168" y="25" type="line" smooth="yes"/>
      <point x="168" y="11"/>
      <point x="179" y="0"/>
      <point x="193" y="0" type="curve" smooth="yes"/>
    </contour>
  </outline>
</glyph>
<glyph name="fraction" format="1">
  <advance width="160"/>
  <unicode hex="2044"/>
  <outline>
    <contour>
      <point x="-148" y="0" type="line" smooth="yes"/>
      <point x="-129" y="0"/>
      <point x="-122" y="7"/>
      <point x="-113" y="19" type="curve" smooth="yes"/>
      <point x="381" y="669" type="line" smooth="yes"/>
      <point x="384" y="673"/>
      <point x="385" y="678"/>
      <point x="385" y="680" type="curve" smooth="yes"/>
      <point x="385" y="692"/>
      <point x="375" y="700"/>
      <point x="362" y="700" type="curve" smooth="yes"/>
      <point x="307" y="700" type="line" smooth="yes"/>
      <point x="288" y="700"/>
      <point x="281" y="693"/>
      <point x="272" y="681" type="curve" smooth="yes"/>
      <point x="-222" y="31" type="line" smooth="yes"/>
      <point x="-225" y="27"/>
      <point x="-226" y="22"/>
      <point x="-226" y="20" type="curve" smooth="yes"/>
      <point x="-226" y="8"/>
      <point x="-216" y="0"/>
      <point x="-203" y="0" type="curve" smooth="yes"/>
    </contour>
  </outline>
</glyph>
<glyph name="zeroinferior" format="1">
  <advance width="375"/>
  <unicode hex="2080"/>
  <outline>
    <contour>
      <point x="278" y="-175"/>
      <point x="337" y="-123"/>
      <point x="342" y="-43" type="curve" smooth="yes"/>
      <point x="345" y="-9"/>
      <point x="344" y="15"/>
      <point x="342" y="52" type="curve" smooth="yes"/>
      <point x="337" y="132"/>
      <point x="283" y="185"/>
      <point x="187" y="185" type="curve" smooth="yes"/>
      <point x="91" y="185"/>
      <point x="37" y="132"/>
      <point x="33" y="52" type="curve" smooth="yes"/>
      <point x="31" y="15"/>
      <point x="30" y="-9"/>
      <point x="33" y="-43" type="curve" smooth="yes"/>
      <point x="38" y="-123"/>
      <point x="96" y="-175"/>
      <point x="187" y="-175" type="curve" smooth="yes"/>
    </contour>
    <contour>
      <point x="157" y="-84"/>
      <point x="146" y="-61"/>
      <point x="144" y="-37" type="curve" smooth="yes"/>
      <point x="142" y="-7"/>
      <point x="142" y="18"/>
      <point x="144" y="46" type="curve" smooth="yes"/>
      <point x="145" y="71"/>
      <point x="157" y="94"/>
      <point x="188" y="94" type="curve" smooth="yes"/>
      <point x="219" y="94"/>
      <point x="231" y="71"/>
      <point x="232" y="46" type="curve" smooth="yes"/>
      <point x="234" y="18"/>
      <point x="234" y="-7"/>
      <point x="232" y="-37" type="curve" smooth="yes"/>
      <point x="230" y="-61"/>
      <point x="219" y="-84"/>
      <point x="188" y="-84" type="curve" smooth="yes"/>
    </contour>
  </outline>
</glyph>
<glyph name="sixinferior" format="1">
  <advance width="353"/>
  <unicode hex="2086"/>
  <outline>
    <contour>
      <point x="269" y="-175"/>
      <point x="334" y="-125"/>
      <point x="334" y="-48" type="curve" smooth="yes"/>
      <point x="334" y="33"/>
      <point x="262" y="69"/>
      <point x="207" y="72" type="curve"/>
      <point x="260" y="140" type="line" smooth="yes"/>
      <point x="266" y="148"/>
      <point x="270" y="154"/>
      <point x="270" y="160" type="curve" smooth="yes"/>
      <point x="270" y="171"/>
      <point x="261" y="180"/>
      <point x="250" y="180" type="curve" smooth="yes"/>
      <point x="188" y="180" type="line" smooth="yes"/>
      <point x="177" y="180"/>
      <point x="166" y="173"/>
      <point x="159" y="165" type="curve" smooth="yes"/>
      <point x="74" y="58" type="line" smooth="yes"/>
      <point x="58" y="38"/>
      <point x="26" y="-3"/>
      <point x="26" y="-50" type="curve" smooth="yes"/>
      <point x="26" y="-131"/>
      <point x="95" y="-175"/>
      <point x="182" y="-175" type="curve" smooth="yes"/>
    </contour>
    <contour>
      <point x="154" y="-92"/>
      <point x="135" y="-75"/>
      <point x="135" y="-49" type="curve" smooth="yes"/>
      <point x="135" y="-24"/>
      <point x="154" y="-8"/>
      <point x="182" y="-8" type="curve" smooth="yes"/>
      <point x="211" y="-8"/>
      <point x="230" y="-24"/>
      <point x="230" y="-49" type="curve" smooth="yes"/>
      <point x="230" y="-75"/>
      <point x="210" y="-92"/>
      <point x="182" y="-92" type="curve" smooth="yes"/>
    </contour>
  </outline>
</glyph>
<glyph name="product" format="1">
  <advance width="668"/>
  <unicode hex="220F"/>
  <outline>
    <contour>
      <point x="202" y="-200" type="line" smooth="yes"/>
      <point x="217" y="-200"/>
      <point x="228" y="-189"/>
      <point x="228" y="-175" type="curve" smooth="yes"/>
      <point x="228" y="526" type="line"/>
      <point x="440" y="526" type="line"/>
      <point x="440" y="-175" type="line" smooth="yes"/>
      <point x="440" y="-189"/>
      <point x="451" y="-200"/>
      <point x="465" y="-200" type="curve" smooth="yes"/>
      <point x="577" y="-200" type="line" smooth="yes"/>
      <point x="592" y="-200"/>
      <point x="603" y="-189"/>
      <point x="603" y="-175" type="curve" smooth="yes"/>
      <point x="603" y="675" type="line" smooth="yes"/>
      <point x="603" y="689"/>
      <point x="592" y="700"/>
      <point x="577" y="700" type="curve" smooth="yes"/>
      <point x="90" y="700" type="line" smooth="yes"/>
      <point x="76" y="700"/>
      <point x="65" y="689"/>
      <point x="65" y="675" type="curve" smooth="yes"/>
      <point x="65" y="-175" type="line" smooth="yes"/>
      <point x="65" y="-190"/>
      <point x="76" y="-200"/>
      <point x="90" y="-200" type="curve" smooth="yes"/>
    </contour>
  </outline>
</glyph>
<glyph name="Dieresis" format="1">
  <advance width="495"/>
  <unicode hex="F6CB"/>
  <outline>
    <contour>
      <point x="415" y="750" type="line" smooth="yes"/>
      <point x="428" y="750"/>
      <point x="438" y="760"/>
      <point x="438" y="773" type="curve" smooth="yes"/>
      <point x="438" y="868" type="line" smooth="yes"/>
      <point x="438" y="881"/>
      <point x="428" y="891"/>
      <point x="415" y="891" type="curve" smooth="yes"/>
      <point x="320" y="891" type="line" smooth="yes"/>
      <point x="307" y="891"/>
      <point x="297" y="881"/>
      <point x="297" y="868" type="curve" smooth="yes"/>
      <point x="297" y="773" type="line" smooth="yes"/>
      <point x="297" y="760"/>
      <point x="307" y="750"/>
      <point x="320" y="750" type="curve" smooth="yes"/>
    </contour>
    <contour>
      <point x="175" y="750" type="line" smooth="yes"/>
      <point x="188" y="750"/>
      <point x="198" y="760"/>
      <point x="198" y="773" type="curve" smooth="yes"/>
      <point x="198" y="868" type="line" smooth="yes"/>
      <point x="198" y="881"/>
      <point x="188" y="891"/>
      <point x="175" y="891" type="curve" smooth="yes"/>
      <point x="80" y="891" type="line" smooth="yes"/>
      <point x="67" y="891"/>
      <point x="57" y="881"/>
      <point x="57" y="868" type="curve" smooth="yes"/>
      <point x="57" y="773" type="line" smooth="yes"/>
      <point x="57" y="760"/>
      <point x="67" y="750"/>
      <point x="80" y="750" type="curve" smooth="yes"/>
    </contour>
  </outline>
</glyph>
<glyph name="Dotaccent" format="1">
  <advance width="266"/>
  <outline>
    <contour>
      <point x="186" y="750" type="line" smooth="yes"/>
      <point x="199" y="750"/>
      <point x="209" y="760"/>
      <point x="209" y="773" type="curve" smooth="yes"/>
      <point x="209" y="879" type="line" smooth="yes"/>
      <point x="209" y="892"/>
      <point x="199" y="902"/>
      <point x="186" y="902" type="curve" smooth="yes"/>
      <point x="80" y="902" type="line"/>
      <point x="67" y="902"/>
      <point x="57" y="892"/>
      <point x="57" y="879" type="curve" smooth="yes"/>
      <point x="57" y="773" type="line" smooth="yes"/>
      <point x="57" y="760"/>
      <point x="67" y="750"/>
      <point x="80" y="750" type="curve" smooth="yes"/>
    </contour>
  </outline>
</glyph>
<glyph name="Ring" format="1">
  <advance width="300"/>
  <outline>
    <contour>
      <point x="202" y="740"/>
      <point x="244" y="777"/>
      <point x="244" y="828" type="curve" smooth="yes"/>
      <point x="244" y="880"/>
      <point x="202" y="917"/>
      <point x="150" y="917" type="curve" smooth="yes"/>
      <point x="99" y="917"/>
      <point x="57" y="880"/>
      <point x="57" y="828" type="curve" smooth="yes"/>
      <point x="57" y="777"/>
      <point x="99" y="740"/>
      <point x="150" y="740" type="curve" smooth="yes"/>
    </contour>
    <contour>
      <point x="133" y="798"/>
      <point x="120" y="811"/>
      <point x="120" y="828" type="curve" smooth="yes"/>
      <point x="120" y="845"/>
      <point x="133" y="858"/>
      <point x="150" y="858" type="curve" smooth="yes"/>
      <point x="167" y="858"/>
      <point x="180" y="845"/>
      <point x="180" y="828" type="curve" smooth="yes"/>
      <point x="180" y="811"/>
      <point x="167" y="798"/>
      <point x="150" y="798" type="curve" smooth="yes"/>
    </contour>
  </outline>
</glyph>
<glyph name="emdash.cap" format="1">
  <advance width="766"/>
  <outline>
    <contour>
      <point x="680" y="275" type="line" smooth="yes"/>
      <point x="695" y="275"/>
      <point x="706" y="286"/>
      <point x="706" y="300" type="curve" smooth="yes"/>
      <point x="706" y="400" type="line" smooth="yes"/>
      <point x="706" y="414"/>
      <point x="695" y="425"/>
      <point x="680" y="425" type="curve" smooth="yes"/>
      <point x="85" y="425" type="line" smooth="yes"/>
      <point x="71" y="425"/>
      <point x="60" y="414"/>
      <point x="60" y="400" type="curve" smooth="yes"/>
      <point x="60" y="300" type="line" smooth="yes"/>
      <point x="60" y="286"/>
      <point x="71" y="275"/>
      <point x="85" y="275" type="curve" smooth="yes"/>
    </contour>
  </outline>
</glyph>
<glyph name="equal.cap" format="1">
  <advance width="566"/>
  <outline>
    <contour>
      <point x="480" y="409" type="line" smooth="yes"/>
      <point x="495" y="409"/>
      <point x="506" y="420"/>
      <point x="506" y="434" type="curve" smooth="yes"/>
      <point x="506" y="516" type="line" smooth="yes"/>
      <point x="506" y="530"/>
      <point x="495" y="541"/>
      <point x="480" y="541" type="curve" smooth="yes"/>
      <point x="85" y="541" type="line" smooth="yes"/>
      <point x="71" y="541"/>
      <point x="60" y="530"/>
      <point x="60" y="516" type="curve" smooth="yes"/>
      <point x="60" y="434" type="line" smooth="yes"/>
      <point x="60" y="420"/>
      <point x="71" y="409"/>
      <point x="85" y="409" type="curve" smooth="yes"/>
    </contour>
    <contour>
      <point x="480" y="159" type="line" smooth="yes"/>
      <point x="495" y="159"/>
      <point x="506" y="170"/>
      <point x="506" y="184" type="curve" smooth="yes"/>
      <point x="506" y="266" type="line" smooth="yes"/>
      <point x="506" y="280"/>
      <point x="495" y="291"/>
      <point x="480" y="291" type="curve" smooth="yes"/>
      <point x="85" y="291" type="line" smooth="yes"/>
      <point x="71" y="291"/>
      <point x="60" y="280"/>
      <point x="60" y="266" type="curve" smooth="yes"/>
      <point x="60" y="184" type="line" smooth="yes"/>
      <point x="60" y="170"/>
      <point x="71" y="159"/>
      <point x="85" y="159" type="curve" smooth="yes"/>
    </contour>
  </outline>
</glyph>
<glyph name="guillemetleft.cap" format="1">
  <advance width="630"/>
  <outline>
    <contour>
      <point x="563" y="79"/>
      <point x="572" y="89"/>
      <point x="572" y="101" type="curve" smooth="yes"/>
      <point x="572" y="200" type="line" smooth="yes"/>
      <point x="572" y="221"/>
      <point x="567" y="229"/>
      <point x="554" y="242" type="curve" smooth="yes"/>
      <point x="452" y="343" type="line"/>
      <point x="554" y="444" type="line" smooth="yes"/>
      <point x="567" y="457"/>
      <point x="572" y="465"/>
      <point x="572" y="486" type="curve" smooth="yes"/>
      <point x="572" y="585" type="line" smooth="yes"/>
      <point x="572" y="597"/>
      <point x="563" y="607"/>
      <point x="551" y="607" type="curve" smooth="yes"/>
      <point x="547" y="607"/>
      <point x="540" y="605"/>
      <point x="533" y="599" type="curve" smooth="yes"/>
      <point x="326" y="398" type="line" smooth="yes"/>
      <point x="316" y="389"/>
      <point x="311" y="379"/>
      <point x="311" y="368" type="curve" smooth="yes"/>
      <point x="311" y="318" type="line" smooth="yes"/>
      <point x="311" y="307"/>
      <point x="316" y="297"/>
      <point x="326" y="288" type="curve" smooth="yes"/>
      <point x="533" y="87" type="line" smooth="yes"/>
      <point x="540" y="81"/>
      <point x="547" y="79"/>
      <point x="551" y="79" type="curve" smooth="yes"/>
    </contour>
    <contour>
      <point x="286" y="79"/>
      <point x="295" y="89"/>
      <point x="295" y="101" type="curve" smooth="yes"/>
      <point x="295" y="200" type="line" smooth="yes"/>
      <point x="295" y="221"/>
      <point x="290" y="229"/>
      <point x="277" y="242" type="curve" smooth="yes"/>
      <point x="175" y="343" type="line"/>
      <point x="277" y="444" type="line" smooth="yes"/>
      <point x="290" y="457"/>
      <point x="295" y="465"/>
      <point x="295" y="486" type="curve" smooth="yes"/>
      <point x="295" y="585" type="line" smooth="yes"/>
      <point x="295" y="597"/>
      <point x="286" y="607"/>
      <point x="274" y="607" type="curve" smooth="yes"/>
      <point x="270" y="607"/>
      <point x="263" y="605"/>
      <point x="256" y="599" type="curve" smooth="yes"/>
      <point x="49" y="398" type="line" smooth="yes"/>
      <point x="39" y="389"/>
      <point x="34" y="379"/>
      <point x="34" y="368" type="curve"/>
      <point x="34" y="318" type="line" smooth="yes"/>
      <point x="34" y="307"/>
      <point x="39" y="297"/>
      <point x="49" y="288" type="curve" smooth="yes"/>
      <point x="256" y="87" type="line" smooth="yes"/>
      <point x="263" y="81"/>
      <point x="270" y="79"/>
      <point x="274" y="79" type="curve" smooth="yes"/>
    </contour>
  </outline>
</glyph>
<glyph name="guillemetright.cap" format="1">
  <advance width="630"/>
  <outline>
    <contour>
      <point x="359" y="79"/>
      <point x="366" y="81"/>
      <point x="373" y="87" type="curve" smooth="yes"/>
      <point x="580" y="288" type="line" smooth="yes"/>
      <point x="590" y="297"/>
      <point x="595" y="307"/>
      <point x="595" y="318" type="curve" smooth="yes"/>
      <point x="595" y="368" type="line" smooth="yes"/>
      <point x="595" y="379"/>
      <point x="590" y="389"/>
      <point x="580" y="398" type="curve" smooth="yes"/>
      <point x="373" y="599" type="line" smooth="yes"/>
      <point x="366" y="605"/>
      <point x="359" y="607"/>
      <point x="355" y="607" type="curve" smooth="yes"/>
      <point x="343" y="607"/>
      <point x="334" y="597"/>
      <point x="334" y="585" type="curve" smooth="yes"/>
      <point x="334" y="486" type="line" smooth="yes"/>
      <point x="334" y="465"/>
      <point x="339" y="457"/>
      <point x="352" y="444" type="curve" smooth="yes"/>
      <point x="454" y="343" type="line"/>
      <point x="352" y="242" type="line" smooth="yes"/>
      <point x="339" y="229"/>
      <point x="334" y="221"/>
      <point x="334" y="200" type="curve" smooth="yes"/>
      <point x="334" y="101" type="line" smooth="yes"/>
      <point x="334" y="89"/>
      <point x="343" y="79"/>
      <point x="355" y="79" type="curve" smooth="yes"/>
    </contour>
    <contour>
      <point x="83" y="79"/>
      <point x="90" y="81"/>
      <point x="97" y="87" type="curve" smooth="yes"/>
      <point x="304" y="288" type="line" smooth="yes"/>
      <point x="314" y="297"/>
      <point x="319" y="307"/>
      <point x="319" y="318" type="curve" smooth="yes"/>
      <point x="319" y="368" type="line" smooth="yes"/>
      <point x="319" y="379"/>
      <point x="314" y="389"/>
      <point x="304" y="398" type="curve" smooth="yes"/>
      <point x="97" y="599" type="line" smooth="yes"/>
      <point x="90" y="605"/>
      <point x="83" y="607"/>
      <point x="79" y="607" type="curve" smooth="yes"/>
      <point x="67" y="607"/>
      <point x="58" y="597"/>
      <point x="58" y="585" type="curve" smooth="yes"/>
      <point x="58" y="486" type="line" smooth="yes"/>
      <point x="58" y="465"/>
      <point x="63" y="457"/>
      <point x="76" y="444" type="curve" smooth="yes"/>
      <point x="178" y="343" type="line"/>
      <point x="76" y="242" type="line" smooth="yes"/>
      <point x="63" y="229"/>
      <point x="58" y="221"/>
      <point x="58" y="200" type="curve" smooth="yes"/>
      <point x="58" y="101" type="line" smooth="yes"/>
      <point x="58" y="89"/>
      <point x="67" y="79"/>
      <point x="79" y="79" type="curve" smooth="yes"/>
    </contour>
  </outline>
</glyph>
<glyph name="hyphen.cap" format="1">
  <advance width="486"/>
  <outline>
    <contour>
      <point x="400" y="275" type="line" smooth="yes"/>
      <point x="415" y="275"/>
      <point x="426" y="286"/>
      <point x="426" y="300" type="curve" smooth="yes"/>
      <point x="426" y="400" type="line" smooth="yes"/>
      <point x="426" y="414"/>
      <point x="415" y="425"/>
      <point x="400" y="425" type="curve" smooth="yes"/>
      <point x="85" y="425" type="line" smooth="yes"/>
      <point x="71" y="425"/>
      <point x="60" y="414"/>
      <point x="60" y="400" type="curve" smooth="yes"/>
      <point x="60" y="300" type="line" smooth="yes"/>
      <point x="60" y="286"/>
      <point x="71" y="275"/>
      <point x="85" y="275" type="curve" smooth="yes"/>
    </contour>
  </outline>
</glyph>
<glyph name="parenleft.otlf" format="1">
  <advance width="667"/>
  <outline>
    <contour>
      <point x="489" y="-117"/>
      <point x="501" y="-106"/>
      <point x="501" y="-92" type="curve" smooth="yes"/>
      <point x="501" y="-2" type="line" smooth="yes"/>
      <point x="501" y="12"/>
      <point x="489" y="22"/>
      <point x="476" y="23" type="curve" smooth="yes"/>
      <point x="367" y="30"/>
      <point x="336" y="149"/>
      <point x="336" y="351" type="curve" smooth="yes"/>
      <point x="336" y="553"/>
      <point x="367" y="671"/>
      <point x="476" y="678" type="curve" smooth="yes"/>
      <point x="489" y="679"/>
      <point x="501" y="689"/>
      <point x="501" y="703" type="curve" smooth="yes"/>
      <point x="501" y="793" type="line" smooth="yes"/>
      <point x="501" y="807"/>
      <point x="489" y="818"/>
      <point x="475" y="818" type="curve" smooth="yes"/>
      <point x="291" y="818"/>
      <point x="176" y="685"/>
      <point x="176" y="351" type="curve" smooth="yes"/>
      <point x="176" y="17"/>
      <point x="291" y="-117"/>
      <point x="475" y="-117" type="curve" smooth="yes"/>
    </contour>
  </outline>
</glyph>
